<svg xmlns="http://www.w3.org/2000/svg" width="739.515" height="700mm" viewBox="0 0 195.663 299.541"><defs><clipPath id="a" clipPathUnits="userSpaceOnUse"><path d="M-117.254 2458.72h554.636v-970.39h-554.636Z"/></clipPath></defs><g clip-path="url(#a)" style="opacity:.14999402" transform="matrix(-.3524 0 0 .35278 154.132 -452.278)"><path d="m0 0-53.225-92.188L0-184.375h106.449l53.224 92.187L106.449 0Z" style="fill:#8997b4;fill-opacity:1;fill-rule:nonzero;stroke:none" transform="translate(-63.977 2067.328)"/><path d="M0 0h-106.449l-53.224-92.188 53.224-92.187H0l53.225 92.187z" style="fill:#8997b4;fill-opacity:1;fill-rule:nonzero;stroke:none" transform="translate(384.158 2060.858)"/><path d="m0 0-53.225-92.188L0-184.375h106.449l53.224 92.187L106.449 0Z" style="fill:#8997b4;fill-opacity:1;fill-rule:nonzero;stroke:none" transform="translate(107.029 1964.628)"/><path d="m0 0 53.224 92.188L0 184.375h-106.449l-53.225-92.187L-106.449 0Z" style="fill:#8997b4;fill-opacity:1;fill-rule:nonzero;stroke:none" transform="translate(213.478 1977.566)"/><path d="M0 0h106.449l53.225 92.188-53.225 92.187H0l-53.225-92.187Z" style="fill:#8997b4;fill-opacity:1;fill-rule:nonzero;stroke:none" transform="translate(106.65 2173.263)"/><path d="m0 0 53.225 92.188L0 184.375h-106.449l-53.225-92.187L-106.449 0Z" style="fill:#8997b4;fill-opacity:1;fill-rule:nonzero;stroke:none" transform="translate(42.42 2077.032)"/><path d="m0 0 53.225 92.188L0 184.375h-106.449l-53.225-92.187L-106.449 0Z" style="fill:#8997b4;fill-opacity:1;fill-rule:nonzero;stroke:none" transform="translate(42.42 2274.346)"/><path d="m0 0-53.225-92.188L0-184.375h106.449l53.225 92.187L106.449 0Z" style="fill:#8997b4;fill-opacity:1;fill-rule:nonzero;stroke:none" transform="translate(106.65 1768.932)"/><path d="m0 0-53.225-92.188L0-184.375h106.449l53.225 92.187L106.449 0Z" style="fill:#8997b4;fill-opacity:1;fill-rule:nonzero;stroke:none" transform="translate(-64.03 1672.7)"/><path d="m0 0 53.225 92.188L0 184.376h-106.449l-53.225-92.188L-106.449 0Z" style="fill:#8997b4;fill-opacity:1;fill-rule:nonzero;stroke:none" transform="translate(42.42 1685.639)"/></g></svg>